<svg id="Livello_1" data-name="Livello 1" xmlns="http://www.w3.org/2000/svg" viewBox="0 0 566.08 157.32"><defs><style>.cls-1{fill:none;}.cls-2{fill:#2e85c7;}.cls-3{fill:#f8ac00;}.cls-4{fill:#a7bfe5;}.cls-5{fill:#73a1d6;}</style></defs><title>BergUndSportLogo</title><rect class="cls-1" width="566.08" height="157.32"/><path class="cls-1" d="M194,242.72l.34-.18h0Z" transform="translate(-137.91 -218.98)"/><path class="cls-2" d="M274.86,282.34c-2.56,3.45-6.12,15.13-8.55,23.17-5.9,19.49-11,36.31-21.14,36.31-9.21,0-16-15.66-30.44-54.13C208.46,271,199.05,246,194.37,242.55l-.34.18c-2,1.19-8.13,6.82-19,33.3-7.12,17.34-12.62,34.75-12.67,34.92l-.81,2.57a63.13,63.13,0,0,0,122.8,0l-.75-4.25C281.5,297.4,277.56,285.46,274.86,282.34Z" transform="translate(-137.91 -218.98)"/><path class="cls-3" d="M245.33,332.59c3.87-2,9.53-20.63,12.28-29.71,6-19.88,9.52-30.26,17.06-30.26,2.89,0,5.39,1.7,7.56,4.51a63.2,63.2,0,0,0-79-38.26c5.25,7.11,11,21.49,20,45.62C229.6,301.41,240.13,329.44,245.33,332.59Z" transform="translate(-137.91 -218.98)"/><path class="cls-4" d="M292.54,307.72c-2-11.23-5.21-24-10.31-30.59-2.17-2.81-4.67-4.51-7.56-4.51-7.53,0-11,10.37-17.06,30.26-2.75,9.08-8.42,27.73-12.28,29.71-5.2-3.15-15.74-31.18-22.08-48.1-9.06-24.14-14.8-38.51-20-45.62-2.83-3.83-5.51-5.55-8.5-5.55-5.53,0-13.69,4.4-27.85,38.67-7.39,17.91-13.12,36.06-13.17,36.23L152,313.76h9.46l.08-.25.81-2.57c.05-.17,5.55-17.58,12.67-34.92,10.88-26.48,17-32.11,19-33.3l.33-.18h0c4.68,3.41,14.09,28.42,20.37,45.15,14.45,38.46,21.24,54.13,30.44,54.13,10.13,0,15.23-16.82,21.14-36.31,2.43-8,6-19.72,8.55-23.17,2.7,3.12,6.63,15.06,8.73,26.95l.75,4.25,0,.23h9.36Z" transform="translate(-137.91 -218.98)"/><path class="cls-5" d="M311.66,275.4h13.42c4.95,0,12.37,1.43,12.37,9.84,0,4.56-3.08,7.75-7.64,8.58v.11c5.22.5,8.8,4,8.8,8.74,0,9.68-8.69,11.11-13.53,11.11H311.66Zm7.7,15.51h3.13c3.24,0,7.26-.71,7.26-4.67,0-4.46-3.9-4.79-7.42-4.79h-3Zm0,16.83H323c3.58,0,7.92-.88,7.92-5.33,0-5-4.07-5.77-7.92-5.77h-3.63Z" transform="translate(-137.91 -218.98)"/><path class="cls-5" d="M367.31,312.19a19.44,19.44,0,0,1-9.73,2.25c-9.35,0-14.79-5.39-14.79-14.68,0-8.19,4.34-15,13.14-15,10.5,0,13.47,7.2,13.47,17.1H349.83c.33,4.56,3.52,7.15,8.08,7.15a19.1,19.1,0,0,0,9.4-2.86Zm-4.95-15.34c-.22-3.57-1.87-6.65-6-6.65s-6.21,2.86-6.54,6.65Z" transform="translate(-137.91 -218.98)"/><path class="cls-5" d="M375.35,285.47h6.54v6.43H382c.33-2.64,3.35-7.09,7.75-7.09A8.05,8.05,0,0,1,392,285v7.42a7.51,7.51,0,0,0-3.3-.6c-6,0-6,7.48-6,11.55v10.39h-7.37Z" transform="translate(-137.91 -218.98)"/><path class="cls-5" d="M422.59,285.47V311c0,7.7-3.08,15-15,15a24.91,24.91,0,0,1-9.79-1.92l.6-6.27a21.25,21.25,0,0,0,8.25,2.47c8.14,0,8.52-6.1,8.52-11h-.11c-1.37,2.42-4.67,4.51-8.8,4.51-8.36,0-11.55-6.71-11.55-14.3,0-6.82,3.52-14.68,12-14.68,3.74,0,6.65,1.26,8.69,4.51h.11v-3.85Zm-7.37,13.86c0-4.84-1.87-8.8-6.16-8.8-5,0-6.6,4.62-6.6,9,0,3.85,2,8.58,6.27,8.58C413.35,308.07,415.22,304.06,415.22,299.33Z" transform="translate(-137.91 -218.98)"/><path class="cls-5" d="M468.18,313.79h-7v-3.85h-.11a11.81,11.81,0,0,1-9.29,4.51c-6.71,0-9.62-4.73-9.62-11.11V285.47h7.37v15.12c0,3.46.06,8.14,4.78,8.14,5.33,0,6.49-5.77,6.49-9.4V285.47h7.37Z" transform="translate(-137.91 -218.98)"/><path class="cls-5" d="M475.78,285.47h7v3.85h.11c2.31-3.24,5.44-4.51,9.29-4.51,6.71,0,9.62,4.73,9.62,11.11v17.87h-7.37V298.67c0-3.46-.05-8.14-4.78-8.14-5.33,0-6.49,5.77-6.49,9.4v13.86h-7.37Z" transform="translate(-137.91 -218.98)"/><path class="cls-5" d="M528.24,310.6h-.11a10.51,10.51,0,0,1-8.69,3.85c-8.69,0-11.88-7.15-11.88-14.9s3.19-14.74,11.88-14.74a10.06,10.06,0,0,1,8.47,4H528V272.54h7.37v41.24h-7.15Zm-6.76-1.87c4.89,0,6.49-5.17,6.49-9.18s-1.87-9-6.6-9-6.1,5.22-6.1,9S516.64,308.73,521.48,308.73Z" transform="translate(-137.91 -218.98)"/><path class="cls-5" d="M575.16,282.44a19.88,19.88,0,0,0-7.81-1.65c-2.64,0-6,1.15-6,5.33,0,6.65,16.83,3.85,16.83,16.72,0,8.41-6.65,11.6-14.41,11.6-4.18,0-6-.55-9.84-1.48l.71-6.93a18.53,18.53,0,0,0,8.69,2.37c2.92,0,6.82-1.49,6.82-5,0-7.31-16.83-4.29-16.83-17,0-8.58,6.65-11.71,13.42-11.71a29,29,0,0,1,9.18,1.38Z" transform="translate(-137.91 -218.98)"/><path class="cls-5" d="M584.46,285.47h7v4h.11c1.65-2.75,4.46-4.67,8.8-4.67,8.69,0,11.88,6.93,11.88,14.74s-3.19,14.9-12,14.9a9.68,9.68,0,0,1-8.3-3.9h-.11v14.79h-7.37Zm7.42,14.08c0,4,1.59,9.18,6.49,9.18s6.21-5.28,6.21-9.18-1.32-9-6.1-9S591.88,295.59,591.88,299.55Z" transform="translate(-137.91 -218.98)"/><path class="cls-5" d="M631,284.81c8.41,0,14.85,5.66,14.85,15,0,8.14-5.44,14.63-14.85,14.63s-14.79-6.49-14.79-14.63C616.25,290.47,622.68,284.81,631,284.81Zm0,23.92c5.67,0,7.15-5.06,7.15-9.79,0-4.34-2.31-8.41-7.15-8.41s-7.09,4.18-7.09,8.41C623.95,303.62,625.43,308.73,631,308.73Z" transform="translate(-137.91 -218.98)"/><path class="cls-5" d="M651.83,285.47h6.54v6.43h.11c.33-2.64,3.35-7.09,7.75-7.09a8.05,8.05,0,0,1,2.25.22v7.42a7.51,7.51,0,0,0-3.3-.6c-6,0-6,7.48-6,11.55v10.39h-7.37Z" transform="translate(-137.91 -218.98)"/><path class="cls-5" d="M675.48,290.86H670v-5.39h5.44V279.8l7.37-2.36v8h6.54v5.39h-6.54v13.2c0,2.42.66,4.67,3.46,4.67a6.58,6.58,0,0,0,3.35-.77l.22,5.83a19.37,19.37,0,0,1-5.44.66c-5.77,0-9-3.57-9-9.18Z" transform="translate(-137.91 -218.98)"/></svg>