<svg id="Layer_1" data-name="Layer 1" xmlns="http://www.w3.org/2000/svg" viewBox="0 0 722.44 655.72">
    <defs>
        <style>.cls-1{fill:none;}.cls-2{fill:#2e85c7;}.cls-3{fill:#f8ac00;}.cls-4{fill:#96c2e3;}</style>
    </defs>
    <title>Bergundsport Logo</title>
    <path class="cls-1" d="M1452.76,220.23l1.74-.9,0,0C1454,219.52,1453.42,219.83,1452.76,220.23Z" transform="translate(-1238.56 -172.28)"/>
    <path class="cls-2" d="M1864.81,422.18c-13,17.6-31.18,77.11-43.58,118.11-30.1,99.33-56.1,185.09-107.73,185.09-46.92,0-81.54-79.84-155.18-275.9-32-85.28-79.94-212.78-103.82-230.15l-1.74.9c-10,6.06-41.43,34.78-96.89,169.75-36.29,88.39-64.31,177.12-64.59,178l-4.11,13.09c33.72,141.62,161,246.94,313,246.94s279.18-105.26,312.95-246.81l-3.82-21.66C1898.62,498.95,1878.57,438.07,1864.81,422.18Z" transform="translate(-1238.56 -172.28)"/>
    <path class="cls-3" d="M1714.28,678.3c19.71-10.1,48.56-105.16,62.6-151.46,30.71-101.35,48.54-154.22,86.94-154.22,14.72,0,27.49,8.66,38.55,23-45.12-123.18-163.4-211.08-302.21-211.08a321.43,321.43,0,0,0-100.65,16.07c26.76,36.24,56,109.53,102.2,232.56C1634.07,519.37,1687.78,662.25,1714.28,678.3Z" transform="translate(-1238.56 -172.28)"/>
    <path class="cls-4" d="M1954.94,551.51c-10.07-57.26-26.58-122.23-52.57-155.91-11.05-14.32-23.82-23-38.55-23-38.4,0-56.22,52.87-86.94,154.22-14,46.3-42.9,141.36-62.6,151.46-26.5-16.05-80.21-158.93-112.57-245.15-46.19-123-75.44-196.32-102.2-232.56-14.42-19.52-28.11-28.31-43.34-28.31-28.2,0-69.8,22.41-141.95,197.11-37.69,91.27-66.85,183.79-67.13,184.69l-8.53,28.24h48.22l.39-1.26,4.11-13.09c.28-.87,28.3-89.6,64.59-178,55.46-135,86.9-163.68,96.89-169.75.66-.4,1.23-.7,1.7-.93l0,0c23.88,17.37,71.82,144.88,103.82,230.15,73.64,196.06,108.26,275.9,155.18,275.9,51.63,0,77.64-85.76,107.73-185.09,12.4-41,30.53-100.51,43.58-118.11,13.76,15.9,33.81,76.77,44.47,137.36l3.82,21.66.2,1.16,47.69,0Z" transform="translate(-1238.56 -172.28)"/>
</svg>