<?xml version="1.0" standalone="no"?>
<!DOCTYPE svg PUBLIC "-//W3C//DTD SVG 20010904//EN" "http://www.w3.org/TR/2001/REC-SVG-20010904/DTD/svg10.dtd">
<!-- Created using Krita: http://krita.org -->
<svg xmlns="http://www.w3.org/2000/svg" 
    xmlns:xlink="http://www.w3.org/1999/xlink"
    xmlns:krita="http://krita.org/namespaces/svg/krita"
    xmlns:sodipodi="http://sodipodi.sourceforge.net/DTD/sodipodi-0.dtd"
    viewBox="0 0 576 576">
<defs/>
<path id="shape0" transform="matrix(1.82735734294704 0 0 1.82735737413703 107.647706190866 107.651091549791)" fill="#144063" fill-rule="evenodd" stroke="#144063" stroke-width="1.49999999999988" stroke-linecap="square" stroke-linejoin="bevel" d="M83.514 39.6977L86.812 36.4467L87.857 32.2765L89.927 31.9213L92.493 32.5157L92.44 29.4824L97.188 27.0048L97.562 20.9298L96.208 16.4817L98.088 14.3732L93.235 10.784L92.662 5.3642L88.61 1.9209L79.634 0L72.477 1.7207L66.807 6.2903L63.204 10.345L62.373 17.7055L63.75 23.4308L55.638 25.3277L49.852 23.192L45.125 17.6843L42.629 11.8186L39.557 9.636L35.934 12.5732L31.255 9.7795L26.74 7.3024L20.941 13.6309L17.06 20.0859L15.871 25.2168L13.342 26.6978L11.316 29.6074L0 86.3365L0.581 92.2345L1.927 86.9415L8.067 63.3595L2.8 91.2385L4.261 92.6505L5.64 89.2725L6.843 94.2025L8.827 95.9905L8.475 96.0495L10.086 99.0985L12.213 98.2975L17.2 100.894L22.952 101.498L28.86 100.706L28.235 108.867L31.117 109.855L36.909 119.732L34.972 151.438L30.442 160.423L29.436 170.395L27.587 216.868L27.697 229.224L48.664 227.962L62.494 224.733L60.914 218.072L52.762 213.666L44.745 207.694L47.963 206.06L46.182 203.034L48.497 163.888L54.468 155.871L60.903 119.266L84.562 104.754L92.361 102.678L91.532 142.655L92.547 145.097L92.9 168.248L94.87 168.843L98.775 168.492L127.973 156.845L130.3 152.41L127.528 147.111L124.578 145.617L121.043 144.886L117.972 146.329L112.819 148.91L111.488 144.105L114.11 144.441L114.546 88.7075L111.806 82.3725L106.786 80.8115L102.599 80.3425L95.87 81.4645L102.897 80.0855L95.776 74.6195L90.083 68.6495L87.903 62.6185L84.338 50.3832L83.514 39.6977M68.02 86.1125L67.056 85.3365L68.936 83.2275L71.82 83.8165L72.167 85.4075L72.117 85.4285L68.02 86.1125"/><path id="shape1" transform="matrix(1.82735734294704 0 0 1.82735737413703 0.822651582462551 286.345696279423)" fill="#144063" fill-rule="evenodd" stroke="#144063" stroke-width="0.37999999999997" stroke-linecap="square" stroke-linejoin="bevel" d="M0 161.75L12.3387 153.754L25.9904 159.343L33.0256 149.083L54.7452 143.406L59.4686 136.017L66.3307 127.009L80.3086 125.622L84.1661 124.496L130.664 125.181L145.994 122.322L142.795 102.987L159.338 91.3608L154.041 82.5865L157.925 79.4216L160.563 69.5743L207.6 46.9731C228.973 39.1443 214.028 47.3217 235.401 39.4928C246.087 35.5784 236.214 36.6079 255.98 28.692C265.863 24.734 269.969 30.2742 286.127 24.58C294.206 21.7329 293.488 19.42 303.228 14.2315C312.968 9.04288 333.166 0.978607 335.837 0L333.398 157.605C312.998 172.667 208.408 149.46 0 161.75Z"/>
</svg>
