<?xml version="1.0" standalone="no"?>
<!DOCTYPE svg PUBLIC "-//W3C//DTD SVG 20010904//EN" "http://www.w3.org/TR/2001/REC-SVG-20010904/DTD/svg10.dtd">
<!-- Created using Krita: http://krita.org -->
<svg xmlns="http://www.w3.org/2000/svg" 
    xmlns:xlink="http://www.w3.org/1999/xlink"
    xmlns:krita="http://krita.org/namespaces/svg/krita"
    xmlns:sodipodi="http://sodipodi.sourceforge.net/DTD/sodipodi-0.dtd"
    viewBox="0 0 225 225">
<defs/>
<path id="shape0" transform="matrix(0.982630481932943 -0.185572993660836 0.185572993660836 0.982630481932943 -15.215019993787 43.2180499012308)" fill="#144063" fill-rule="evenodd" stroke="#144063" stroke-width="1.48" stroke-linecap="square" stroke-linejoin="bevel" d="M197.591 0L210.927 4.67547L210.867 7.54411L209.141 10.1227L205.533 14.4792L199.929 17.3391L190.063 20.2611L184.633 21.7442L180.959 21.9377L175.469 22.7243L171.755 21.8263L168.283 21.9319L166.54 24.8067L165.159 28.2957L162.582 30.1342L150.599 33.7316L143.831 36.1313L137.081 40.0174L134.033 43.2163L133.717 48.9427L136.287 56.2147L140.178 62.8663L140.386 64.2503L138.766 65.9437L135.31 67.3447L126.662 70.1973L119.882 74.0535L110.898 80.4128L111.181 81.4924L110.48 82.0705L110.644 81.5098L107.932 83.9008L107.746 84.3249L105.251 86.3821L105.201 86.6102L104.215 86.6412L99.3929 85.7394L85.3223 68.406L70.4557 56.6625L63.5184 51.9871L58.4834 53.2527L35.8946 85.5721L29.144 95.8064L34.8199 99.6317L32.8066 104.034L29.8451 105.707L20.6829 103.897L16.6873 99.8105L12.9652 98.3659L8.33547 101.262L5.7173 103.459L2.43837 102.827L5.22256 106.207L0 107.86L3.17913 108.205L3.5766 113.059L4.93345 110.011L9.36186 110.244L8.69761 114.823L12.6132 116.361L10.0329 117.74L16.5469 119.342L15.3397 122.821L18.7942 122.104L19.455 124.934L15.7192 126.231L21.8339 126.684L23.8997 130.272L22.6925 133.792L25.4604 132.026L28.0769 133.533L27.1571 136.911L31.1562 133.59L31.607 130.272L35.718 130.272L38.7491 125.318L39.6448 120.015L45.5953 111.186L62.86 83.9358L64.8854 80.4952L67.3341 80.1278L68.7812 84.2947L76.3835 95.9848L83.2692 104.22L82.2754 105.532L87.2854 117.639L83.2364 120.816L80.8221 127.774L64.527 151.789L65.5371 155.624L60.5683 162.18L57.9106 168.9L54.9852 173.458L52.6088 179.597L51.9583 181.433L54.2014 180.01L56.4246 180.848L56.1733 183.834L58.4542 181.592L59.4282 182.542L62.0963 180.488L65.6204 177.654L68.7815 176.557L69.0551 179.199L70.7931 175.858L74.0419 174.086L75.2749 168.827L72.8159 164.528L78.0523 160.134L82.8533 151.703L88.6481 141.962L91.6431 135.287L93.3192 130.272L99.9123 130.272L99.0005 141.697L82.7654 198.195L84.4524 198.443L101.206 135.994C96.7886 156.965 92.3711 177.936 87.9537 198.907L89.7658 198.583C93.9956 178.471 98.2254 158.36 102.455 138.248L108.289 132.977L112.596 130.272L119.14 125.079L122.411 123.571L123.06 118.669L126.23 115.699L127.766 109.489L127.007 109.295L128.523 108.66L140.631 105.099L150.241 102.881L158.81 101.403L165.272 98.028L169.234 95.3036L173.357 88.3594L176.201 90.6049L176.861 95.1831L185.641 99.8728L193.111 100.339L197.639 97.9422L202.668 93.5295L204.31 89.2284L204.575 84.1559L204.166 81.0788L201.304 76.4383L201.62 76.4549L199.974 73.9873L197.126 71.7506L192.969 71.7194L190.462 70.4918L184.236 68.4649L178.937 67.5785L176.919 70.0421L174.622 72.1931L170.404 71.4653L168.977 68.6137L164.643 68.1767L163.798 65.5553L161.882 62.5777L162.896 60.3559L171.641 52.6186L175.639 51.9479L178.612 50.1311L182.028 47.4476L186.152 46.2886L187.023 44.8512L211.547 45.5104L217.403 41.6741L221.641 38.4418L222.381 35.8087L221.908 33.604L208.132 24.8227L218.579 34.7078L218.339 37.2693L209.423 42.7195L189.172 41.8007L186.999 39.8984L183.226 40.0864L176.374 38.6192L172.833 43.5735L167.499 48.726L163.961 48.2338L161.148 50.7525L155.606 52.9868L155.291 52.2728L154.616 52.803L150.814 49.5885L150.483 46.5993L154.327 43.3452L165.7 36.446L172.336 34.6333L176.827 32.2072L180.227 29.8198L182.715 25.9958L201.142 20.476L205.815 18.3569L209.993 14.428L213.501 10.0661L215.721 5.73212L214.699 2.70486L212.363 1.9818L197.591 0"/>
</svg>
