<?xml version="1.0" standalone="no"?>
<!DOCTYPE svg PUBLIC "-//W3C//DTD SVG 20010904//EN"
 "http://www.w3.org/TR/2001/REC-SVG-20010904/DTD/svg10.dtd">
<svg version="1.0" xmlns="http://www.w3.org/2000/svg" viewBox="0 0 666 666"
 preserveAspectRatio="xMidYMid meet">
<metadata>
Created by potrace 1.15, written by Peter Selinger 2001-2017
</metadata>
<g id="content" transform="translate(0.000000,1280.000000) scale(0.100000,-0.100000)"
 stroke="none" fill="#144063">
<path d="M3 12783 c-6 -16 4 -5653 10 -5660 6 -6 420 218 507 275 101 65 212
156 296 244 84 87 94 104 94 164 0 81 53 149 140 179 53 18 222 118 440 258
199 129 258 170 654 470 181 136 330 247 331 245 8 -9 25 -184 25 -258 0 -58
4 -91 13 -98 6 -5 45 -12 85 -14 47 -4 79 -11 91 -22 33 -30 57 -14 53 36 -5
60 38 16 58 -60 17 -65 39 -82 108 -82 92 0 342 80 556 178 95 43 101 44 170
39 98 -8 140 -22 181 -61 19 -18 78 -62 130 -96 52 -34 95 -67 95 -72 0 -6
-49 -105 -109 -222 -60 -116 -119 -245 -131 -286 -12 -42 -88 -204 -170 -365
-288 -567 -331 -638 -439 -714 -91 -63 -95 -107 -15 -143 39 -17 62 -20 128
-16 102 5 160 34 190 93 17 31 30 42 61 51 40 11 65 40 65 77 0 37 45 103 135
198 154 163 308 382 363 517 49 121 239 374 385 512 237 224 249 238 317 400
23 54 47 101 55 103 7 3 63 -16 125 -43 164 -72 173 -74 209 -55 62 32 79 114
36 177 -14 20 -25 42 -25 48 0 6 15 26 34 45 62 61 69 173 25 365 -22 96 -70
246 -106 333 -32 77 -41 156 -58 517 -17 354 -25 416 -71 526 -18 44 -38 112
-44 150 -6 42 -24 95 -45 137 -40 79 -40 77 -19 77 24 0 89 55 254 215 150
145 187 170 318 216 139 48 244 135 372 304 54 72 151 188 216 259 107 117
168 172 360 329 32 27 175 158 317 290 l258 242 -1348 6 c-741 3 -2321 7
-3511 8 -2003 1 -2163 0 -2169 -16z m4800 -1928 c4 -8 2 -40 -3 -72 -14 -81
-14 -79 28 -100 44 -22 68 -65 94 -173 37 -156 34 -353 -9 -485 -29 -93 -44
-92 -93 6 -34 66 -77 106 -126 115 -103 19 -243 -31 -278 -100 -19 -38 -19
-40 -1 -111 11 -46 15 -86 11 -109 -6 -31 -2 -42 23 -74 28 -36 60 -117 49
-127 -3 -3 -26 4 -52 16 -60 26 -82 21 -177 -40 -118 -76 -196 -146 -221 -199
-22 -45 -50 -64 -69 -45 -10 10 -32 205 -50 436 l-12 158 244 247 c261 264
346 357 373 410 22 42 102 131 184 205 70 61 77 65 85 42z m-1019 -1082 c23
-46 26 -80 35 -339 6 -203 11 -255 25 -281 30 -59 72 -55 227 23 47 23 100 54
116 68 37 31 73 33 98 6 15 -17 17 -31 12 -103 -12 -145 -51 -237 -112 -263
-41 -17 -69 -8 -126 37 -47 37 -340 180 -431 210 -65 21 -70 21 -111 5 -24 -9
-83 -42 -132 -72 -49 -31 -136 -77 -194 -101 -58 -25 -139 -60 -180 -79 -80
-37 -240 -71 -284 -61 -56 15 -147 118 -147 168 0 44 50 91 187 176 68 43 166
111 216 152 118 95 234 170 486 315 113 65 221 129 240 142 46 31 57 30 75 -3z"/>
</g>
</svg>
