<?xml version="1.0" standalone="no"?>
<!DOCTYPE svg PUBLIC "-//W3C//DTD SVG 20010904//EN" "http://www.w3.org/TR/2001/REC-SVG-20010904/DTD/svg10.dtd">
<!-- Created using Krita: http://krita.org -->
<svg xmlns="http://www.w3.org/2000/svg" 
    xmlns:xlink="http://www.w3.org/1999/xlink"
    xmlns:krita="http://krita.org/namespaces/svg/krita"
    xmlns:sodipodi="http://sodipodi.sourceforge.net/DTD/sodipodi-0.dtd"
    viewBox="0 0 576 576">
<defs/>
<path id="shape0" transform="matrix(1.00000000317995 0 0 0.999999939493319 5.42066118261892 47.2824341554622)" fill="#144063" fill-rule="evenodd" stroke="#144063" stroke-width="0.907199999999927" stroke-linecap="square" stroke-linejoin="miter" stroke-miterlimit="2" d="M284.014 128.346L283.76 128.215L283.691 128.181L286.833 124.32L289.964 120.442L293.089 116.556L296.203 112.664L299.314 108.769L302.425 104.87L305.54 100.974L308.654 97.082L311.775 93.1967L314.907 89.3184L318.052 85.4572L318.562 82.2947L327.798 72.7244L330.486 69.5309L332.884 65.7454L336.408 66.0861L345.314 59.1553L348.594 55.6727L363.275 56.1683L367.442 52.111L361.857 52.3278L358.381 48.7557L359.909 44.3715L362.018 40.5792L369.417 36.5666L383.798 37.3512L387.078 33.8686L388.11 22.7188L389.656 17.1583L390.075 7.76324L396.913 1.98047L402.519 0L409.56 0.682755L421.553 4.66435L429.685 11.5315L429.895 17.7048L428.439 38.5419L437.118 48.3531L443.973 62.841L443.557 71.9432L432.83 82.9623L447.325 97.2575L449.803 109.632L468.682 147.198L473.617 151.671L476.153 159.638L487.681 175.95L497.182 176.856L500.572 178.476L507.531 185.327L514.403 198.638L509.853 209.155L496.305 211.615L495.094 214.241L487.172 213.546L480.513 206.405L476.084 208.109L475.292 201.34L461.304 193.218L461.359 189.106L454.645 185.785L444.486 176.834L438.722 168.53L435.869 162.322L431.794 159.328L422.176 132.173L416.463 141.788L415.889 162.639L413.531 184.639L414.849 195.823L414.949 195.768L416.697 200.142L415.644 202.61L425.221 213.959L422.324 215.442L413.094 205.321L414.392 212.249L414.602 251.452L409.859 275.472L402.161 302.191L403.256 313.554L400.974 327.994L398.548 336.769L394.294 341.422L393.809 351.904L387.746 378.292L381.362 411.532L376.221 426.65L372.077 428.883L371.379 435.315L378.172 445.728L374.865 456.08L420.82 467.088L425.462 462.859L436.093 460.116L446.482 462.615L446.148 469.872L450.818 473.723L442.786 481.435L417.441 479.054L260.896 447.996L268.284 445.511L325.988 455.846L328.039 455.133L271.966 444.469L279.3 443.188L329.839 451.176L327.753 443.808L330.95 435.876L329.708 427.737L323.114 421.777L324.732 412.96L328.5 366.268L332.378 352.304L332.203 338.558L336.773 327.054L336.267 320.564L340.097 316.297L337.32 306.472L338.48 298.849L332.754 282.826L323.765 267.464L319.763 249.098L318.765 235.718L315.606 216.585L318.637 203.391L319.666 198.59L313.616 189.622L310.213 193.304L307.481 199.058L302.047 202.985L297.205 205.872L293.915 205.077L293.832 205.015L291.362 211.392L280.315 261.308L278.178 262.767L265.314 314.235L262.637 324.896L265.27 336.807L261.725 336.531L260.775 332.302L227.666 464.081L232.784 464.205L236.982 466.789L237.013 469.631L229.631 470.523L226.531 471.466L225.154 475.884L224.676 474.477L224.001 471.008L219.961 471.342L216.923 470.853L214.4 468.878L216.974 466.562L225.485 464.494L258.903 323.964L245.196 262.953L233.42 209.692L237.653 208.157L249.56 262.316L248.837 262.423L260.73 316.272L261.398 313.468L273.721 263.916L273.305 261.731L283.646 221.606L283.815 216.141L287.469 200.39L285.639 198.552L276.836 182.375L277.146 164.666L278.419 156.011L275.776 148.829L281.051 145.474L283.244 138.14L283.994 131.292L284.014 128.346M487.931 178.193L487.055 156.379L484.932 153.1L488.08 151.093L493.583 150.89L493.17 156.345L498.674 177.603L489.424 176.254ZM499.519 212.266L513.904 277.327L534.097 367.201L538.423 367.538L518.35 276.677L519.234 276.549L504.692 210.394L499.519 212.266M534.411 367.759L550.647 439.348L540.784 444.379L548.885 446.592L551.996 445.756L556.48 460.805L556.253 444.524L565.159 440.212L554.449 438.973L537.89 367.566L534.411 367.759M56.9915 140.986L56.7815 140.883L56.7265 140.852L59.3006 137.689L61.8643 134.516L64.4212 131.337L66.9712 128.15L69.5178 124.96L72.0644 121.77L74.6109 118.58L77.1644 115.393L79.7178 112.21L82.2816 109.037L84.8557 105.875L85.2721 103.287L92.8361 95.4542L95.0351 92.8354L97.0001 89.7382L99.8839 90.017L107.176 84.3423L109.86 81.4929L121.881 81.8955L125.291 78.5746L120.718 78.7536L117.872 75.8285L119.124 72.2392L120.848 69.1351L126.905 65.8521L138.681 66.4922L141.365 63.6428L142.212 54.513L143.475 49.9602L143.822 42.2689L149.418 37.5371L154.009 35.9128L159.773 36.4737L169.591 39.7326L176.246 45.3557L176.419 50.4076L175.228 67.4661L182.334 75.5015L187.943 87.3603L187.603 94.8142L178.824 103.834L190.69 115.538L192.717 125.665L208.175 156.42L212.212 160.082L214.29 166.603L225.445 179.315C228.401 180.076 229.029 181.299 231.985 182.061L234.281 182.027L239.979 187.636L245.603 198.535L241.879 207.142L230.788 209.158L229.797 211.309L223.31 210.738L217.859 204.895L214.232 206.288L213.585 200.748L202.132 194.099L202.177 190.73L196.681 188.012L188.363 180.682L183.645 173.885L181.309 168.802L177.974 166.352L170.1 144.121L165.424 151.991L164.952 169.064L163.025 187.076L164.102 196.229L164.181 196.185L165.616 199.767L164.752 201.787L172.592 211.079L170.221 212.29L162.664 204.003L163.727 209.678L163.899 241.768L160.017 261.435L153.716 283.308L154.611 292.61L152.742 304.431L150.757 311.616L147.274 315.426L146.878 324.009L141.913 345.61L136.689 372.824L132.48 385.199L129.087 387.026L128.512 392.295L134.073 400.819L131.368 409.295L168.992 418.308L172.788 414.842L181.494 412.599L189.998 414.643L189.726 420.586L193.549 423.738L186.973 430.053L166.225 428.102L38.0643 402.677L44.1141 400.64L91.3529 409.102L93.0357 408.521L47.1287 399.787L53.1303 398.741L94.5051 405.279L92.8017 399.246L95.4136 392.749L94.3984 386.09L89.0025 381.211L90.3274 373.994L93.4108 335.764L96.5837 324.335L96.4426 313.082L100.183 303.664L99.7669 298.35L102.905 294.857L100.631 286.815L101.58 280.572L96.8934 267.458L89.5324 254.88L86.2563 239.845L85.4407 228.891L82.8529 213.226L85.3375 202.424L86.1806 198.494L81.2251 191.153L78.4411 194.168L76.2008 198.879L71.7547 202.09L67.7903 204.454L65.0957 203.807L65.0303 203.752L63.0069 208.976L53.9631 249.838L52.2149 251.036L41.6811 293.171L10.8608 415.844L15.0488 415.947L18.4867 418.06L18.5142 420.39L12.4678 421.119L9.93161 421.887L8.80286 425.507L8.41055 424.354L7.85994 421.515L4.55285 421.79L2.06478 421.388L0 419.77L2.10952 417.874L9.07472 416.181L38.4772 292.541L48.5637 251.975L48.2265 250.186L56.6886 217.335L56.8297 212.865L59.8202 199.97L58.3232 198.463L51.1137 185.221L51.3684 170.722L52.4111 163.637L50.2465 157.756L54.5653 155.009L56.3617 149.004L56.9742 143.399L56.9915 140.986M223.695 180.393L223.213 163.94L221.479 161.252L224.053 159.61L228.558 159.442L228.22 163.909L231.892 181.832C229.127 181.042 226.712 179.282 223.946 178.493M261.983 336.989L275.277 395.595L267.2 399.711L273.832 401.528L276.382 400.843L280.05 413.163L279.864 399.835L287.156 396.304L278.388 395.289L264.833 336.831L261.983 336.989"/>
</svg>
