<?xml version="1.0" standalone="no"?>
<!DOCTYPE svg PUBLIC "-//W3C//DTD SVG 20010904//EN"
 "http://www.w3.org/TR/2001/REC-SVG-20010904/DTD/svg10.dtd">
<svg version="1.0" xmlns="http://www.w3.org/2000/svg" viewBox="0 0 1280.000000 865.000000"
 preserveAspectRatio="xMidYMid meet">
<metadata>
Created by potrace 1.15, written by Peter Selinger 2001-2017
</metadata>
<g transform="translate(0.000000,865.000000) scale(0.100000,-0.100000)" fill="#144063" stroke="none">
<path d="M8035 8619 c-91 -39 -139 -91 -241 -262 -71 -119 -273 -415 -371
-542 -46 -59 -118 -105 -210 -133 -104 -32 -408 -99 -499 -111 -90 -11 -190
-46 -362 -127 -129 -61 -193 -102 -336 -218 -56 -45 -114 -87 -131 -93 -16 -6
-101 -37 -188 -68 -126 -46 -163 -64 -184 -89 -33 -39 -56 -94 -50 -117 7 -27
-25 -63 -96 -105 -82 -50 -170 -117 -188 -145 l-15 -22 -175 43 c-181 44
-2350 570 -2639 640 -91 22 -587 142 -1104 268 l-938 227 -25 85 c-29 103 -60
159 -89 166 -51 13 -194 -97 -194 -149 0 -27 18 -189 25 -233 6 -34 22 -44
108 -65 35 -9 54 -9 75 0 22 9 50 7 147 -13 558 -114 1919 -432 4574 -1067
311 -75 299 -66 258 -192 l-25 -77 21 -4 c12 -3 39 -8 60 -11 61 -10 83 -24
132 -84 24 -31 67 -80 94 -110 l49 -54 77 42 c63 35 91 44 150 50 62 6 81 13
138 50 76 50 147 122 147 150 0 11 23 65 51 119 l50 100 76 7 c44 4 79 3 84
-2 6 -6 9 -50 7 -99 l-3 -88 -40 -23 c-22 -12 -50 -23 -63 -23 -30 0 -103 -76
-134 -137 -21 -43 -23 -63 -25 -197 l-1 -148 -51 -47 c-57 -53 -63 -79 -36
-145 15 -36 14 -42 -31 -197 l-46 -160 16 -69 c20 -91 78 -243 136 -360 26
-52 80 -177 120 -278 l73 -183 -23 -103 -23 -104 -48 -6 c-27 -4 -71 -4 -99 0
-48 6 -51 5 -87 -32 -21 -22 -47 -52 -58 -67 l-20 -29 -980 592 c-539 326
-1097 663 -1241 750 l-261 158 -38 -65 c-21 -36 -34 -68 -29 -73 5 -4 585
-383 1289 -842 704 -460 1556 -1019 1894 -1243 l615 -408 -30 -24 c-30 -25
-156 -103 -166 -103 -3 0 -21 26 -41 58 -39 63 -117 142 -141 142 -27 0 -80
-56 -146 -154 -46 -69 -74 -100 -100 -113 -19 -9 -68 -36 -108 -60 -41 -23
-80 -43 -87 -43 -8 0 -616 205 -1351 455 -736 250 -1340 453 -1342 450 -5 -5
16 -207 24 -236 6 -20 -154 38 1444 -529 745 -265 1570 -558 1833 -651 379
-135 732 -273 1700 -666 672 -272 1231 -500 1242 -505 67 -36 685 -438 915
-596 87 -60 156 -78 258 -67 78 8 225 44 307 75 l60 22 244 -76 c444 -140 764
-226 838 -226 58 0 150 56 248 151 52 51 95 100 95 109 0 14 -22 23 -107 44
-185 45 -295 58 -508 61 l-200 3 -135 50 c-74 28 -216 88 -315 133 -99 46
-537 234 -974 419 l-794 337 -844 614 c-465 338 -847 617 -850 622 -2 4 27 42
66 85 38 42 169 201 291 352 198 245 260 313 570 625 344 346 390 401 390 460
0 14 -9 44 -21 67 -12 23 -27 59 -35 81 -8 22 -23 47 -34 54 -12 8 -41 54 -65
101 -55 108 -62 116 -159 182 -90 60 -133 75 -255 90 -47 6 -100 15 -118 21
l-32 10 40 62 c51 80 68 93 137 108 34 7 65 20 78 34 41 44 106 212 122 317
14 92 14 102 -2 135 -23 49 -102 150 -128 164 -56 30 -289 79 -378 79 -41 0
-113 9 -160 20 -47 11 -114 20 -150 20 -36 0 -94 7 -130 15 -36 8 -81 14 -101
15 -42 0 -59 26 -59 88 0 39 14 61 136 205 33 40 89 108 124 152 34 44 75 85
90 92 15 6 31 16 34 22 14 22 87 31 261 32 321 3 418 -16 679 -131 102 -46
136 -55 245 -71 69 -10 156 -25 193 -34 37 -8 147 -22 244 -30 97 -8 179 -17
184 -20 4 -2 46 -9 94 -14 48 -6 127 -22 174 -37 85 -26 92 -26 265 -21 l177
6 -5 -22 c-6 -23 -9 -41 -246 -1212 -212 -1046 -298 -1473 -389 -1920 -43
-214 -90 -446 -104 -514 -14 -68 -26 -127 -26 -131 0 -4 -51 -5 -113 -2 -160
7 -166 -2 -120 -171 18 -66 56 -105 124 -127 39 -13 40 -15 35 -49 -3 -20 -10
-94 -16 -166 -6 -71 -12 -146 -15 -166 l-5 -36 56 -12 c31 -7 59 -9 64 -4 4 4
12 78 19 163 6 85 14 179 17 208 l6 52 65 36 64 37 -6 86 c-12 166 -8 215 39
471 100 548 369 1877 626 3103 44 208 80 381 80 383 0 2 17 4 37 4 20 0 55 9
77 20 51 26 149 146 156 192 4 27 13 37 47 53 23 11 53 31 68 45 24 22 26 31
24 95 -1 38 2 91 6 117 l7 47 -66 65 c-37 36 -75 67 -84 70 -151 41 -286 49
-487 28 -60 -6 -111 -11 -112 -11 -1 -1 -18 -15 -37 -31 l-34 -31 -204 20
c-224 21 -258 30 -388 106 -61 36 -92 46 -167 59 -88 14 -95 16 -165 72 -40
32 -81 69 -91 81 -11 13 -122 75 -248 139 -131 66 -248 131 -274 154 -52 45
-169 87 -325 115 -226 42 -215 38 -218 62 -5 33 64 159 129 236 46 55 61 81
71 126 6 31 22 80 35 109 22 49 23 62 17 180 -5 117 -29 256 -56 325 -6 15
-25 37 -42 48 -17 12 -51 44 -76 70 -36 39 -65 58 -140 90 -121 52 -290 109
-321 108 -13 0 -55 -14 -94 -30z m-172 -4945 l65 -49 -32 -21 c-84 -57 -258
-165 -261 -162 -7 7 -125 283 -125 293 0 7 47 6 144 -1 l145 -11 64 -49z
m1033 -2080 c52 -36 94 -67 94 -69 0 -6 -204 75 -213 85 -8 7 8 50 19 50 3 0
48 -30 100 -66z m2173 -1140 c3 -3 -3 -12 -12 -21 -15 -15 -21 -12 -86 42 -39
31 -71 59 -71 61 0 4 161 -74 169 -82z"/>
</g>
</svg>
